name Walk2.mot
datacolumns 19
datarows 25
range 1.21000000 1.33000000
endheader

                time	   L_ground_force_vx	   L_ground_force_vy	   L_ground_force_vz	   L_ground_force_px	   L_ground_force_py	   L_ground_force_pz	   R_ground_force_vx	   R_ground_force_vy	   R_ground_force_vz	   R_ground_force_px	   R_ground_force_py	   R_ground_force_pz	   L_ground_torque_x	   L_ground_torque_y	   L_ground_torque_z	   R_ground_torque_x	   R_ground_torque_y	   R_ground_torque_z	
          1.21000000	        -16.98505471	        197.54728448	        -22.32636855	         -0.08080378	          0.00000000	         -0.01341833	          0.00000000	          0.00000000	          0.00000000	          0.00000000	          0.00000000	          0.00000000	          0.00000000	          0.19076253	          0.00000000	          0.00000000	         -0.00000000	          0.00000000	
          1.21500000	        -26.19090744	        263.63059179	        -29.17509895	         -0.16426681	          0.00000000	         -0.02382981	         -0.00000000	          0.00000000	          0.00000000	          0.00000000	          0.00000000	          0.00000000	          0.00000000	          0.27763365	          0.00000000	          0.00000000	         -0.00000000	          0.00000000	
          1.22000000	        -36.96698826	        332.67898746	        -36.49471297	         -0.23877966	          0.00000000	         -0.03326681	         -0.00000000	          0.00000000	          0.00000000	          0.00000000	          0.00000000	          0.00000000	          0.00000000	          0.36152328	          0.00000000	          0.00000000	          0.00000000	          0.00000000	
          1.22500000	        -49.05929723	        399.53881257	        -43.56481420	         -0.30153236	          0.00000000	         -0.04135865	         -0.00000000	          0.00000000	          0.00000000	          0.00000000	          0.00000000	          0.00000000	          0.00000000	          0.43807840	          0.00000000	          0.00000000	          0.00000000	          0.00000000	
          1.23000000	        -62.07247254	        459.92790253	        -49.43098114	         -0.35163953	          0.00000000	         -0.04800188	         -0.00000000	          0.00000000	          0.00000000	          0.00000000	          0.00000000	          0.00000000	          0.00000000	          0.50568996	          0.00000000	          0.00000000	          0.00000000	          0.00000000	
          1.23500000	        -75.44289852	        511.72812164	        -53.22357389	         -0.38952942	          0.00000000	         -0.05327365	         -0.00000000	          0.00000000	          0.00000000	          0.00000000	          0.00000000	          0.00000000	          0.00000000	          0.56297016	          0.00000000	          0.00000000	          0.00000000	          0.00000000	
          1.24000000	        -88.49314646	        554.42368041	        -54.43089909	         -0.41643626	          0.00000000	         -0.05735401	         -0.00000000	          0.00000000	          0.00000000	          0.00000000	          0.00000000	          0.00000000	          0.00000000	          0.60548395	          0.00000000	          0.00000000	          0.00000000	          0.00000000	
          1.24500000	       -100.58026044	        588.59515313	        -52.97145990	         -0.43400741	          0.00000000	         -0.06047013	         -0.00000000	          0.00000001	          0.00000000	          0.00000000	          0.00000000	          0.00000000	          0.00000000	          0.62578010	          0.00000000	          0.00000000	          0.00000000	          0.00000000	
          1.25000000	       -111.27769485	        615.76965249	        -49.10446334	         -0.44401807	          0.00000000	         -0.06285907	         -0.00000000	          0.00000001	          0.00000000	          0.00000000	          0.00000000	          0.00000000	          0.00000000	          0.61573112	          0.00000000	          0.00000000	          0.00000000	          0.00000000	
          1.25500000	       -120.50503478	        638.20463962	        -43.26306097	         -0.44817869	          0.00000000	         -0.06474540	         -0.00000000	          0.00000001	          0.00000000	          0.00000000	          0.00000000	          0.00000000	          0.00000000	          0.56881357	          0.00000000	          0.00000000	          0.00000000	          0.00000000	
          1.26000000	       -128.52215542	        658.51907830	        -35.91986430	         -0.44802003	          0.00000000	         -0.06632846	         -0.00000000	          0.00000001	          0.00000000	          0.00000000	          0.00000000	          0.00000000	          0.00000000	          0.48141051	          0.00000000	          0.00000000	          0.00000000	          0.00000000	
          1.26500000	       -135.76567389	        679.23719117	        -27.53514616	         -0.44483879	          0.00000000	         -0.06777219	         -0.00000000	          0.00000000	          0.00000000	          0.00000000	          0.00000000	         -0.00000000	          0.00000000	          0.35286822	          0.00000000	          0.00000000	          0.00000000	          0.00000000	
          1.27000000	       -142.63164000	        702.36929298	        -18.55079081	         -0.43968892	          0.00000000	         -0.06919628	         -0.00000000	          0.00000000	          0.00000000	         -0.00000000	          0.00000000	         -0.00000000	          0.00000000	          0.18534028	          0.00000000	          0.00000000	          0.00000000	          0.00000000	
          1.27500000	       -149.33255227	        729.13494154	         -9.39205745	         -0.43340080	          0.00000000	         -0.07067032	         -0.00000000	         -0.00000000	         -0.00000000	         -0.00000000	          0.00000000	         -0.00000000	          0.00000000	         -0.01565135	          0.00000000	          0.00000000	          0.00000000	          0.00000000	
          1.28000000	       -155.86937875	        759.85078787	         -0.47106206	         -0.42661205	          0.00000000	         -0.07221593	         -0.00000000	         -0.00000001	         -0.00000000	         -0.00000000	          0.00000000	         -0.00000000	          0.00000000	         -0.23968807	          0.00000000	          0.00000000	          0.00000000	          0.00000000	
          1.28500000	       -162.08193261	        793.98177144	          7.82087632	         -0.41979596	          0.00000000	         -0.07381625	          0.00000000	         -0.00000002	         -0.00000000	         -0.00000000	          0.00000000	         -0.00000000	          0.00000000	         -0.47072092	          0.00000000	          0.00000000	          0.00000000	          0.00000000	
          1.29000000	       -167.73008322	        830.38228839	         15.15471111	         -0.41328167	          0.00000000	         -0.07543320	          0.00000000	         -0.00000003	         -0.00000000	         -0.00000000	          0.00000000	         -0.00000000	          0.00000000	         -0.68964869	          0.00000000	          0.00000000	         -0.00000000	          0.00000000	
          1.29500000	       -172.58301885	        867.66339060	         21.32610728	         -0.40727247	          0.00000000	         -0.07702586	          0.00000000	         -0.00000005	         -0.00000000	         -0.00000000	          0.00000000	         -0.00000000	          0.00000000	         -0.87970767	          0.00000000	          0.00000000	         -0.00000000	          0.00000000	
          1.30000000	       -176.49623566	        904.51431938	         26.28234518	         -0.40186787	          0.00000000	         -0.07856269	          0.00000000	         -0.00000007	         -0.00000000	         -0.00000000	          0.00000000	         -0.00000000	          0.00000000	         -1.03144976	          0.00000000	          0.00000000	         -0.00000000	          0.00000000	
          1.30500000	       -179.43588175	        939.86268046	         30.08867696	         -0.39708955	          0.00000000	         -0.08002367	          0.00000001	         -0.00000009	         -0.00000000	         -0.00000000	          0.00000000	         -0.00000000	          0.00000000	         -1.14382535	          0.00000000	          0.00000000	         -0.00000000	          0.00000000	
          1.31000000	       -181.44598273	        972.90323658	         32.87875453	         -0.39290715	          0.00000000	         -0.08139875	          0.00000001	         -0.00000011	         -0.00000000	         -0.00000000	          0.00000000	         -0.00000000	          0.00000000	         -1.22146106	          0.00000000	          0.00000000	         -0.00000000	          0.00000000	
          1.31500000	       -182.59624286	       1003.06931135	         34.82735624	         -0.38925947	          0.00000000	         -0.08268766	          0.00000001	         -0.00000013	         -0.00000001	         -0.00000000	          0.00000000	         -0.00000000	          0.00000000	         -1.27163479	          0.00000000	          0.00000000	         -0.00000000	          0.00000000	
          1.32000000	       -182.95330590	       1029.99310831	         36.13369280	         -0.38607054	          0.00000000	         -0.08389707	          0.00000001	         -0.00000014	         -0.00000001	         -0.00000000	          0.00000000	         -0.00000000	          0.00000000	         -1.30126510	          0.00000000	          0.00000000	         -0.00000000	          0.00000000	
          1.32500000	       -182.57501548	       1053.48080431	         37.00619835	         -0.38326176	          0.00000000	         -0.08503625	          0.00000002	         -0.00000015	         -0.00000001	         -0.00000000	          0.00000000	         -0.00000000	          0.00000000	         -1.31612760	          0.00000000	          0.00000000	         -0.00000000	          0.00000000	
          1.33000000	       -181.50910381	       1073.49510974	         37.64926481	         -0.38075977	          0.00000000	         -0.08611653	          0.00000002	         -0.00000014	         -0.00000001	         -0.00000000	          0.00000000	         -0.00000000	          0.00000000	         -1.32121547	          0.00000000	          0.00000000	         -0.00000000	          0.00000000	
